#N canvas 363 158 1020 537 10;
#X obj 664 295 dac~;
#X floatatom 234 148 5 0 0 0 - - -, f 5;
#X obj 258 120 hsl 128 15 0 1024 0 0 empty hej empty -2 -8 0 10 -262144
-1 -1 4186 1;
#X obj 200 72 netreceive 13000;
#X msg 47 155 \; pd dsp 1;
#X floatatom 189 193 5 0 0 0 - - -, f 5;
#X obj 241 233 -;
#X text 166 144 seesaw val;
#X text 152 189 prev;
#X floatatom 238 270 5 0 0 0 - - -, f 5;
#X text 194 271 delta;
#X obj 238 299 abs;
#X floatatom 328 249 5 0 0 0 - - -, f 5;
#X obj 285 272 +;
#X text 342 22 Processing sensors;
#X obj 583 64 bng 15 250 50 0 empty empty empty 17 7 0 10 -262144 -1
-1;
#X obj 614 155 readsf~ 2;
#X msg 615 79 open ./samples/audio.wav \, 1;
#X obj 46 81 loadbang;
#X obj 46 111 del 100;
#X obj 585 18 loadbang;
#X obj 584 41 del 200;
#X text 365 248 accumulator!;
#X floatatom 513 209 5 0 0 0 - - -, f 5;
#X obj 584 282 *~;
#X obj 316 183 max 0;
#X obj 316 206 min 10;
#X obj 557 241 min 1;
#X obj 675 260 *~;
#X text 20 18 turn on DSP;
#X text 20 36 after delay to;
#X text 22 53 workaround pd bug;
#X obj 198 387 netreceive 13001;
#X floatatom 222 428 5 0 0 0 - - -, f 5;
#X obj 238 329 - 0.03;
#X obj 151 309 / 400;
#X text 743 22 Playing wav;
#X obj 1378 468 tgl 15 0 empty empty empty 17 7 0 10 -262144 -1 -1
0 1;
#X obj 1368 289 54;
#X obj 1396 290 353;
#X obj 1425 289 12;
#X obj 1378 436 netsend -u;
#X obj 1598 410 loadbang;
#X obj 1542 410 del 200;
#X obj 1483 289 54;
#X obj 1511 290 353;
#X obj 1540 289 12;
#X obj 1595 288 54;
#X obj 1623 289 353;
#X obj 1652 288 12;
#X obj 1710 287 54;
#X obj 1738 288 353;
#X obj 1767 287 12;
#X text 1606 348 each cluster is P1 \, P2 \, P3 and P4;
#X text 1614 332 each box in cluster is R G B;
#X obj 1388 231 255;
#X obj 1502 229 255;
#X obj 1613 227 255;
#X obj 1738 233 255;
#X obj 1444 109 255;
#X obj 1496 107 0;
#X obj 1444 73 bng 15 250 50 0 empty empty empty 17 7 0 10 -262144
-1 -1;
#X obj 1497 72 bng 15 250 50 0 empty empty empty 17 7 0 10 -262144
-1 -1;
#X obj 1405 143 bng 15 250 50 0 empty empty empty 17 7 0 10 -262144
-1 -1;
#X obj 1563 118 bng 15 250 50 0 empty empty empty 17 7 0 10 -262144
-1 -1;
#X obj 1375 340 pack s f f f f f f f f f f f f;
#X msg 1304 295 setleds;
#X msg 1356 377 send \$1 \$2 \$3 \$4 \$5 \$6 \$7 \$8 \$9 \$10 \$11
\$12 \$13;
#X msg 1282 404 disconnect;
#X text 1746 13 LED infrastructure;
#X text 1139 15 LED control code;
#X floatatom 1032 170 5 0 0 0 - - -, f 5;
#X obj 891 23 loadbang;
#X obj 956 26 bng 15 250 50 0 empty empty empty 17 7 0 10 -262144 -1
-1;
#X obj 912 55 tgl 15 0 empty empty empty 17 7 0 10 -262144 -1 -1 1
1;
#X obj 926 180 bng 15 250 50 0 empty empty empty 17 7 0 10 -262144
-1 -1;
#X obj 916 91 metro 100;
#X obj 1004 214 sin;
#X obj 987 118 + 0.0001;
#X obj 1004 255 + 1;
#X floatatom 1003 315 5 0 0 0 - - -, f 5;
#X obj 1004 291 * 128;
#X msg 1378 408 connect localhost 3010;
#X connect 1 0 5 0;
#X connect 1 0 6 1;
#X connect 2 0 1 0;
#X connect 3 0 1 0;
#X connect 5 0 6 0;
#X connect 6 0 9 0;
#X connect 9 0 11 0;
#X connect 11 0 35 0;
#X connect 12 0 13 1;
#X connect 12 0 23 0;
#X connect 13 0 25 0;
#X connect 15 0 17 0;
#X connect 16 0 24 1;
#X connect 16 1 28 1;
#X connect 16 2 15 0;
#X connect 17 0 16 0;
#X connect 18 0 19 0;
#X connect 19 0 4 0;
#X connect 20 0 21 0;
#X connect 21 0 15 0;
#X connect 23 0 27 0;
#X connect 24 0 0 0;
#X connect 25 0 26 0;
#X connect 26 0 12 0;
#X connect 27 0 24 0;
#X connect 27 0 28 0;
#X connect 28 0 0 1;
#X connect 32 0 33 0;
#X connect 34 0 13 0;
#X connect 35 0 34 0;
#X connect 38 0 65 1;
#X connect 39 0 65 2;
#X connect 40 0 65 3;
#X connect 41 0 37 0;
#X connect 42 0 43 0;
#X connect 43 0 82 0;
#X connect 44 0 65 4;
#X connect 45 0 65 5;
#X connect 46 0 65 6;
#X connect 47 0 65 7;
#X connect 48 0 65 8;
#X connect 49 0 65 9;
#X connect 50 0 65 10;
#X connect 51 0 65 11;
#X connect 52 0 65 12;
#X connect 55 0 38 0;
#X connect 55 0 39 0;
#X connect 55 0 40 0;
#X connect 56 0 44 0;
#X connect 56 0 45 0;
#X connect 56 0 46 0;
#X connect 57 0 47 0;
#X connect 57 0 48 0;
#X connect 57 0 49 0;
#X connect 58 0 50 0;
#X connect 58 0 51 0;
#X connect 58 0 52 0;
#X connect 59 0 55 0;
#X connect 59 0 56 0;
#X connect 59 0 57 0;
#X connect 59 0 58 0;
#X connect 59 0 63 0;
#X connect 60 0 55 0;
#X connect 60 0 56 0;
#X connect 60 0 57 0;
#X connect 60 0 58 0;
#X connect 60 0 64 0;
#X connect 61 0 59 0;
#X connect 62 0 60 0;
#X connect 63 0 66 0;
#X connect 64 0 66 0;
#X connect 65 0 67 0;
#X connect 66 0 65 0;
#X connect 67 0 41 0;
#X connect 68 0 41 0;
#X connect 71 0 77 0;
#X connect 71 0 78 0;
#X connect 72 0 74 0;
#X connect 73 0 74 0;
#X connect 74 0 76 0;
#X connect 74 0 71 0;
#X connect 76 0 75 0;
#X connect 76 0 78 0;
#X connect 77 0 79 0;
#X connect 78 0 71 0;
#X connect 79 0 81 0;
#X connect 80 0 55 0;
#X connect 80 0 66 0;
#X connect 81 0 80 0;
#X connect 82 0 41 0;
