#N canvas 655 273 549 460 10;
#X obj 232 339 dac~;
#X floatatom 103 102 5 0 0 0 - - -, f 5;
#X obj 142 79 hsl 128 15 400 800 0 0 empty hej empty -2 -8 0 10 -262144
-1 -1 6916 1;
#X obj 35 12 netreceive 13000;
#X obj 421 59 loadbang;
#X obj 423 94 del 100;
#X msg 419 138 \; pd dsp 1;
#X text 377 8 turn on DSP after delay to workaround pd bug;
#X floatatom 58 147 5 0 0 0 - - -, f 5;
#X obj 110 187 -;
#X text 35 98 seesaw val;
#X text 21 143 prev;
#X floatatom 107 224 5 0 0 0 - - -, f 5;
#X text 63 225 delta;
#X obj 107 253 abs;
#X obj 185 137 max 0;
#X floatatom 197 202 5 0 0 0 - - -, f 5;
#X obj 154 226 +;
#X obj 107 283 - 0.1;
#X obj 186 155 min 10;
#X text 243 195 main accumulator 0 -- 10;
#X connect 1 0 8 0;
#X connect 1 0 9 1;
#X connect 2 0 1 0;
#X connect 3 0 1 0;
#X connect 4 0 5 0;
#X connect 5 0 6 0;
#X connect 8 0 9 0;
#X connect 9 0 12 0;
#X connect 12 0 14 0;
#X connect 14 0 18 0;
#X connect 15 0 19 0;
#X connect 16 0 17 1;
#X connect 17 0 15 0;
#X connect 18 0 17 0;
#X connect 19 0 16 0;
