#N canvas 328 328 953 492 10;
#X obj 664 295 dac~;
#X floatatom 234 148 5 0 0 0 - - -, f 5;
#X obj 269 123 hsl 128 15 0 1024 0 0 empty hej empty -2 -8 0 10 -262144
-1 -1 0 1;
#X obj 200 72 netreceive 13000;
#X msg 47 155 \; pd dsp 1;
#X floatatom 189 193 5 0 0 0 - - -, f 5;
#X obj 241 233 -;
#X text 166 144 seesaw val;
#X text 152 189 prev;
#X floatatom 238 270 5 0 0 0 - - -, f 5;
#X text 194 271 delta;
#X obj 238 299 abs;
#X floatatom 328 248 5 0 0 0 - - -, f 5;
#X obj 285 272 +;
#X text 248 22 Processing sensors;
#X obj 583 64 bng 15 250 50 0 empty empty empty 17 7 0 10 -262144 -1
-1;
#X text 694 22 Playing wav;
#X obj 614 155 readsf~ 2;
#X msg 615 79 open ./samples/audio.wav \, 1;
#X obj 46 81 loadbang;
#X obj 46 111 del 100;
#X obj 585 18 loadbang;
#X obj 584 41 del 200;
#X text 365 248 accumulator!;
#X floatatom 513 209 5 0 0 0 - - -, f 5;
#X obj 584 282 *~;
#X obj 316 183 max 0;
#X obj 316 206 min 10;
#X obj 557 241 min 1;
#X obj 675 260 *~;
#X text 20 18 turn on DSP;
#X text 20 36 after delay to;
#X text 22 53 workaround pd bug;
#X obj 198 387 netreceive 13001;
#X floatatom 222 428 5 0 0 0 - - -, f 5;
#X obj 238 329 - 0.03;
#X obj 151 309 / 400;
#X connect 1 0 5 0;
#X connect 1 0 6 1;
#X connect 2 0 1 0;
#X connect 3 0 1 0;
#X connect 5 0 6 0;
#X connect 6 0 9 0;
#X connect 9 0 11 0;
#X connect 11 0 36 0;
#X connect 12 0 13 1;
#X connect 12 0 24 0;
#X connect 13 0 26 0;
#X connect 15 0 18 0;
#X connect 17 0 25 1;
#X connect 17 1 29 1;
#X connect 17 2 15 0;
#X connect 18 0 17 0;
#X connect 19 0 20 0;
#X connect 20 0 4 0;
#X connect 21 0 22 0;
#X connect 22 0 15 0;
#X connect 24 0 28 0;
#X connect 25 0 0 0;
#X connect 26 0 27 0;
#X connect 27 0 12 0;
#X connect 28 0 25 0;
#X connect 28 0 29 0;
#X connect 29 0 0 1;
#X connect 33 0 34 0;
#X connect 35 0 13 0;
#X connect 36 0 35 0;
