#N canvas 143 449 450 300 10;
#X obj 139 239 dac~;
#X obj 101 140 osc~ 440;
#X obj 227 155 osc~ 880;
#X floatatom 118 69 5 0 0 0 - - -, f 5;
#X obj 203 88 + 200;
#X obj 91 30 hsl 128 15 400 800 0 0 empty hej empty -2 -8 0 10 -262144
-1 -1 0 1;
#X obj 81 2 netreceive 13000;
#X obj 308 43 loadbang;
#X obj 351 92 del 100;
#X msg 347 136 \; pd dsp 1;
#X connect 1 0 0 0;
#X connect 2 0 0 1;
#X connect 3 0 1 0;
#X connect 3 0 4 0;
#X connect 4 0 2 0;
#X connect 5 0 3 0;
#X connect 6 0 3 0;
#X connect 7 0 8 0;
#X connect 8 0 9 0;
